<?xml version="1.0" encoding="utf-8"?>
<!-- Generator: Adobe Illustrator 25.0.1, SVG Export Plug-In . SVG Version: 6.00 Build 0)  -->
<svg version="1.1" id="Calque_1" xmlns="http://www.w3.org/2000/svg" xmlns:xlink="http://www.w3.org/1999/xlink" x="0px" y="0px"
	 viewBox="0 0 5669.29 2409.45" style="enable-background:new 0 0 5669.29 2409.45;" xml:space="preserve">
<style type="text/css">
	.st0{fill:none;}
</style>
<g>
	<g>
		<path class="st0" d="M5926.23,2438.87c-2044.41,0-4088.82,0-6133.23,0c0-822.85,0-1645.71,0-2468.56
			c2044.41,0,4088.82,0,6133.23,0C5926.23,793.16,5926.23,1616.02,5926.23,2438.87z M5402.07,1344.32
			c-2.9-12.35-4.75-20.51-6.74-28.63c-6.41-26.18-10.9-53.04-19.86-78.31c-9.1-25.66-21.04-50.67-34.71-74.25
			c-10.91-18.82-29.53-25.33-52.16-21.59c-34.38,5.69-61.85,23.67-87.72,45.26c-15.04,12.55-29.39,26.09-45.41,37.21
			c-6.97,4.84-17.4,4.72-26.25,6.85c-1.02-8.95-3.19-17.96-2.7-26.82c0.37-6.58,3.56-13.29,6.61-19.39
			c8.5-17.01,15.94-34.88,26.74-50.36c36.02-51.6,73.7-102.04,109.94-153.49c12.72-18.07,24.3-37.19,34.14-56.95
			c6.54-13.14,5.76-28.03-4.33-40.42c-10.19-12.51-23.89-11.66-37.93-9.06c-32.31,5.97-59.84,22.13-83.54,43.51
			c-87.73,79.17-161.78,168.93-206.95,279.5c-7.54,18.46-18.03,32.01-33.67,43.96c-42.96,32.81-85.29,66.37-135.73,87.47
			c-30.65,12.82-62.27,20.77-95.87,17.26c-33.86-3.54-64.79-29.88-70.51-59.8c-4.77-24.96,11-54.1,38.54-68.63
			c5.74-3.03,13.82-3.16,20.6-2.45c26.22,2.76,52.31,8.77,78.51,9.14c34,0.48,62.92-14.11,83.54-41.73
			c14.09-18.87,23.69-40.54,11.66-63.53c-12.02-22.96-35.22-24.47-58.18-23.8c-2.12,0.06-4.28,0.01-6.34,0.45
			c-40.29,8.6-81.33,14.71-120.69,26.44c-91.97,27.39-169.56,80.5-241.98,141.82c-39.81,33.71-80.96,64.85-133.5,76.5
			c-50.17,11.12-70.64-29.19-67.96-63.78c0.57-7.32,2.18-14.67,4.2-21.76c14.16-49.74,38-95.07,63.84-139.51
			c4.89-8.41,11.27-10.94,20.77-10.87c46.63,0.35,93.31,1.24,139.87-0.58c21.3-0.84,43.27-5.05,63.19-12.44
			c11.41-4.23,22.77-16.29,28.1-27.66c12.7-27.12,1.17-42.89-28.44-42.88c-52.46,0.03-104.92,0.27-157.38,0.35
			c-5.51,0.01-11.02-0.48-18-0.81c7.27-17.93,13.9-33.98,20.29-50.12c9.14-23.08,4.7-37.92-18.2-47.78
			c-56.81-24.47-89.47-12.58-114.65,30.2c-11.27,19.15-21.81,38.8-34.33,57.09c-3.9,5.7-13.12,10.57-20.11,10.86
			c-27.5,1.14-55.09-0.07-82.64,0.37c-11.55,0.18-23.47,0.85-34.53,3.85c-26.44,7.19-35.46,37.93-18.18,59.43
			c11.06,13.76,26.08,19.65,43.21,20.08c18.44,0.47,36.9,0.11,57.94,0.11c-3.38,7.82-5.67,13.5-8.25,19.03
			c-9.17,19.63-20.77,38.49-27.12,58.99c-9.24,29.8-26.32,51.83-51.93,68.84c-24.65,16.37-48.27,34.28-72.61,51.13
			c-11.51,7.97-19.61,4.42-23.96-8.73c-4.14-12.54-8.62-24.97-12.8-37.49c-10.82-32.43-28.4-45.47-62.85-43.83
			c-14.62,0.7-30.23,2.28-43.38,8.05c-33.31,14.61-65.61,31.58-98.09,48.04c-30.63,15.53-60.47,32.78-91.79,46.7
			c-8.81,3.92-26.41,2.91-31.61-3.09c-9.45-10.89,1.01-23.44,10.49-30.89c23.24-18.26,46.06-37.95,71.88-51.83
			c42.3-22.75,86.86-41.27,130.4-61.74c9.07-4.26,18.37-8.42,26.58-14.05c11.95-8.2,17.06-29.19,11.47-43.16
			c-5.52-13.77-17.67-13.22-29.5-13.1c-2.65,0.03-5.3,0.12-7.94,0.26c-60.46,3.39-117.51,21.21-173.67,41.99
			c-71.8,26.56-140.01,59.06-198.33,110.8c-25.02,22.2-54.95,39.72-84.71,55.49c-36.27,19.22-61.08,3.95-60.93-36.86
			c0.07-18.92,6.39-38.14,11.91-56.61c4.86-16.25,5.75-30.63-4.81-45.06c-20.47-27.97-41.27-35.06-71.04-17.37
			c-25.73,15.29-49.33,34.52-72.53,53.63c-27.35,22.53-52.68,47.54-80.18,69.88c-8.12,6.6-20.63,7.81-31.13,11.49
			c0.51-10.51-0.44-21.35,1.8-31.48c8.78-39.69,18.9-79.08,27.85-118.73c3.97-17.57-3.6-30.78-18.53-40.33
			c-27.64-17.67-57.6-20.45-86.42-6.88c-28.52,13.42-56.95,28.83-81.66,48.16c-49.18,38.47-95.75,80.26-143.47,120.61
			c-5.65,4.77-11.13,10.29-17.69,13.26c-5,2.26-11.59,1.03-17.47,1.35c-0.2-5.42-2.21-11.61-0.27-16.11
			c7.72-17.95,16.79-35.32,25.14-53.01c6.09-12.89,12.82-25.6,17.52-39c9.23-26.37-0.94-44.92-28.6-48.01
			c-19.63-2.19-40.49-1.92-59.7,2.28c-43.81,9.58-73.67,39.88-93.92,77.47c-14.29,26.53-34.23,45.63-58.23,61.08
			c-39.55,25.46-79.57,50.38-120.71,73.14c-21.53,11.91-45.38,20.44-69.09,27.43c-25.1,7.4-50.63,6.2-75.55-8.9
			c6.92-3.15,12.16-5.61,17.46-7.92c59.05-25.8,115.13-56.8,162.11-101.34c17.34-16.44,33.31-36.11,44.11-57.27
			c18.54-36.31,2.86-74.86-35.88-87.32c-21.37-6.88-46.26-9.15-68.49-5.96c-87.04,12.48-165.45,47.56-235.65,100.11
			c-37.25,27.88-72.57,58.32-109.2,87.05c-36.74,28.82-74.36,55.96-121.64,65.87c-48.01,10.07-69.59-26.99-67.49-62.95
			c0.49-8.36,1.53-17.29,4.91-24.79c20.79-46.16,41.94-92.17,64.15-137.66c2.59-5.3,12.31-9.93,18.82-10.06
			c47.14-0.93,94.37,0.68,141.45-1.28c21.79-0.9,44-5.94,64.78-12.85c19.61-6.52,29.57-23.17,29.66-44.54
			c0.07-17.87-6.57-25.1-24.77-25.42c-22.78-0.4-45.57-0.05-68.35-0.04c-37.47,0.01-74.94,0-112.35,0
			c-0.19-2.05-0.66-3.21-0.33-4.05c6.22-15.73,12.62-31.38,18.81-47.12c8.62-21.93,4.85-36.23-16.15-46.06
			c-49.37-23.12-89.19-18.96-116.45,28.1c-10.87,18.77-22.31,37.22-32.88,56.15c-5.52,9.88-12.44,14.13-24.22,13.44
			c-19.54-1.14-39.21-0.96-58.8-0.43c-18.46,0.5-37.38-0.11-55.2,3.84c-28.31,6.27-37.12,39.26-17.85,61.15
			c11.21,12.74,25.89,18.12,42.41,18.46c18.32,0.38,36.66,0.09,58.02,0.09c-10.46,21.65-22.77,39.66-28.06,59.54
			c-13.15,49.41-46.11,81.44-86.62,108.12c-16.33,10.76-32.6,21.63-49.2,31.96c-8.36,5.21-15.27,2.94-18.84-6.59
			c-4.08-10.87-8.14-21.77-11.75-32.8c-15.11-46.21-38.73-59.88-86.75-50.44c-44.03,8.65-81.41,31.8-119.68,53.39
			c-29.9,16.87-60.51,32.54-91.39,47.55c-10.85,5.28-25.65,8.97-33.44-3.09c-7.96-12.33,2.1-23.84,11.57-31.32
			c22.38-17.65,44.35-36.72,69.25-50.08c42.79-22.96,87.73-41.91,131.67-62.75c9.99-4.74,20.24-9.42,29.17-15.8
			c10.83-7.74,15.09-29.58,9.65-42.27c-5.49-12.81-16.91-12.74-28.27-12.58c-3.18,0.04-6.38-0.05-9.53,0.32
			c-125.38,14.68-240.21,57.47-343.55,130.02c-25.4,17.83-46.26,40.34-58.37,69.79c-1.29,3.14-3.87,6.48-6.77,8.1
			c-21.67,12.15-43.07,24.99-65.61,35.32c-11.64,5.34-25.33,7.67-38.26,8.37c-16.47,0.89-24.56-6.82-26.25-23.34
			c-1.23-12.02-1.46-24.49,0.27-36.41c12.64-87.42,25.61-174.79,39.04-262.09c6.94-45.08,2.81-52.97-40.31-68.56
			c-3.98-1.44-8.13-2.37-12.11-3.82c-24.67-8.96-45.09-3.96-62.34,16.62c-27.2,32.46-55.14,64.31-83,96.21
			c-41.77,47.85-83.29,95.93-125.95,142.98c-10.45,11.53-24.21,20.57-37.67,28.74c-12.53,7.61-18.64,3.93-19.04-11.14
			c-0.51-18.98-1.04-38.33,1.94-56.96c11.27-70.48,24.12-140.71,36.05-211.1c6.35-37.48,2.11-45.11-32.41-61.52
			c-5.72-2.72-11.71-4.91-17.7-6.98c-26.36-9.09-49.83-5.8-69.48,15.69c-21.07,23.04-44.24,44.37-63.63,68.72
			c-127.66,160.29-254.6,321.15-381.52,482.02c-6.79,8.61-12.52,18.53-16.65,28.68c-14.58,35.9,1.85,58.54,40.45,56.84
			c29.48-1.3,52.72-15.21,71.12-37.07c80.14-95.19,159.9-190.7,239.84-286.06c2.82-3.36,5.98-6.42,11.82-12.65
			c-1.25,13.11-2.14,21.97-2.94,30.85c-4.7,52.13-10.7,104.18-13.58,156.41c-1.83,33.14,6.56,42.31,37.86,53.98
			c8.9,3.32,18.2,5.58,27.2,8.65c40.88,13.92,76.03,7.19,110.3-21.36c75.41-62.83,147.69-128.75,214.7-200.45
			c3.61-3.86,7.49-7.47,14.58-14.51c-3.55,26.74-8.04,48.14-8.9,69.68c-1.73,43.18-5.48,86.86-1.02,129.57
			c5.33,51.01,38.36,75,89.93,74.3c36.22-0.49,70.46-10.13,101.72-27.5c32.65-18.13,63.68-39.17,96.2-59.43
			c-0.38-0.5,0.93,1.02,2.01,2.68c40.96,63.02,92.49,81.8,162.26,53.11c44.8-18.42,87.12-43.06,129.87-66.17
			c25.05-13.55,48.76-29.57,73.17-44.54c8,22.99,14.11,45.53,23.56,66.58c16.06,35.77,37.8,45.43,75.81,36.04
			c10.73-2.65,22.03-5.32,31.39-10.83c37.73-22.19,74.84-45.46,112.1-68.45c4.12-2.54,7.77-5.84,13.57-10.28
			c-1.63,45.77,21.44,74.23,54.47,95.84c35.24,23.05,74.89,24.9,114.97,18.49c58.26-9.32,108.81-36.86,156.91-69.48
			c11.61-7.87,23.05-15.98,34.89-24.2c23.28,49.97,64.39,74.56,114.34,86.69c43.68,10.61,87.51,6.09,130.87-2.35
			c83.41-16.24,158.21-52.7,228.56-99.2c4.44-2.93,9.09-5.56,13.92-8.49c0,12.22,0,22.22,0,32.22
			c-0.01,48.31,43.64,82.94,90.37,71.36c39.65-9.82,72.03-33.04,102.55-58.55c51.61-43.13,102.19-87.48,153.4-131.09
			c7.75-6.6,16.58-11.94,28.81-20.65c-1.22,9.11-1.21,13.16-2.36,16.85c-5.16,16.65-10.4,33.28-16.05,49.76
			c-13.03,37.98-27.03,75.65-39.24,113.89c-6.6,20.67,1.33,37.7,22.01,44.27c15.09,4.8,33.11,8.08,47.88,4.35
			c19.95-5.04,39.25-15.58,56.69-27.03c62.41-40.94,123.91-83.26,185.78-125.04c4.59-3.1,9.31-6.01,15.31-9.86
			c1.33,12.9,2.2,23.41,3.52,33.87c8.29,65.76,44.43,94.45,109.57,86.67c44.1-5.27,82.87-24.48,120.31-46.94
			c4.77-2.86,9.57-5.68,14.82-8.79c3.92,7.85,6.61,14.16,10.06,20.03c26.89,45.78,65.31,72.76,120.02,66.39
			c22.15-2.58,45.07-9.49,64.8-19.84c56.15-29.49,110.84-61.76,166.11-92.94c5.26-2.97,10.48-5.99,15.65-8.96
			c7.92,23.01,13.79,45.13,23,65.76c16.25,36.39,38.45,46.18,77.08,36.26c10.71-2.75,21.97-5.47,31.34-10.98
			c37.27-21.94,73.92-44.95,110.74-67.66c4.25-2.62,8.12-5.85,13.8-9.99c-1.38,45.25,22,73.85,55.51,95.76
			c26.71,17.46,56.99,21.84,88.3,20.46c59.06-2.6,110.64-26.56,159.55-57.15c25.44-15.91,49.72-33.69,75.29-51.15
			c39.52,85.5,112.15,109.34,198.13,102.82c93.45-7.08,177.65-41.49,253.87-95.66c8.47-6.02,16.89-12.1,26.26-18.81
			c1.52,18.95,1.9,36.28,4.49,53.27c6.5,42.71,31.65,62.74,74.7,60.59c36.23-1.81,68.92-15.72,96.32-37.45
			c40.92-32.46,78.75-68.82,117.9-103.53c6.49-5.75,12.97-11.5,22-19.5c3.05,13.61,4.86,23.35,7.45,32.88
			c8.02,29.48,13.34,60.16,25.27,87.99c16.3,38.07,48.79,52.91,88.75,41.89c23.54-6.49,47.42-16.42,67.44-30.19
			c66.1-45.48,121.58-102.1,163.94-170.58c9.33-15.08,16.52-32.04,21.56-49.07c6.39-21.54-4.34-31.74-26.35-26.21
			c-10.59,2.66-21.76,6.68-30.3,13.18c-37.88,28.82-74.96,58.7-112.23,88.32C5435.11,1317.19,5420.12,1329.63,5402.07,1344.32z"/>
		<path d="M5402.07,1344.32c18.05-14.69,33.04-27.13,48.28-39.25c37.27-29.62,74.34-59.5,112.23-88.32
			c8.55-6.5,19.71-10.52,30.3-13.18c22.01-5.53,32.74,4.66,26.35,26.21c-5.05,17.02-12.23,33.99-21.56,49.07
			c-42.36,68.48-97.84,125.1-163.94,170.58c-20.02,13.77-43.89,23.7-67.44,30.19c-39.97,11.02-72.45-3.82-88.75-41.89
			c-11.92-27.84-17.25-58.52-25.27-87.99c-2.59-9.53-4.4-19.27-7.45-32.88c-9.03,8-15.51,13.75-22,19.5
			c-39.15,34.7-76.98,71.06-117.9,103.53c-27.4,21.73-60.09,35.64-96.32,37.45c-43.05,2.15-68.2-17.88-74.7-60.59
			c-2.59-17-2.96-34.33-4.49-53.27c-9.37,6.72-17.79,12.79-26.26,18.81c-76.22,54.17-160.42,88.58-253.87,95.66
			c-85.98,6.52-158.61-17.32-198.13-102.82c-25.57,17.46-49.85,35.24-75.29,51.15c-48.91,30.59-100.49,54.55-159.55,57.15
			c-31.31,1.38-61.59-2.99-88.3-20.46c-33.51-21.91-56.89-50.52-55.51-95.76c-5.68,4.14-9.55,7.37-13.8,9.99
			c-36.82,22.71-73.46,45.72-110.74,67.66c-9.37,5.51-20.63,8.23-31.34,10.98c-38.63,9.91-60.83,0.13-77.08-36.26
			c-9.21-20.63-15.08-42.74-23-65.76c-5.17,2.96-10.4,5.99-15.65,8.96c-55.26,31.18-109.95,63.45-166.11,92.94
			c-19.72,10.36-42.65,17.27-64.8,19.84c-54.71,6.37-93.13-20.61-120.02-66.39c-3.45-5.87-6.14-12.17-10.06-20.03
			c-5.25,3.11-10.05,5.93-14.82,8.79c-37.44,22.46-76.21,41.67-120.31,46.94c-65.14,7.78-101.28-20.9-109.57-86.67
			c-1.32-10.46-2.19-20.98-3.52-33.87c-6,3.86-10.72,6.76-15.31,9.86c-61.86,41.77-123.37,84.1-185.78,125.04
			c-17.44,11.44-36.74,21.99-56.69,27.03c-14.77,3.73-32.79,0.45-47.88-4.35c-20.67-6.57-28.6-23.6-22.01-44.27
			c12.21-38.24,26.2-75.91,39.24-113.89c5.66-16.48,10.9-33.11,16.05-49.76c1.14-3.69,1.13-7.74,2.36-16.85
			c-12.24,8.7-21.06,14.05-28.81,20.65c-51.21,43.61-101.79,87.96-153.4,131.09c-30.53,25.51-62.9,48.72-102.55,58.55
			c-46.73,11.58-90.38-23.05-90.37-71.36c0-10,0-20,0-32.22c-4.83,2.94-9.48,5.56-13.92,8.49c-70.35,46.5-145.15,82.96-228.56,99.2
			c-43.36,8.44-87.19,12.96-130.87,2.35c-49.95-12.13-91.06-36.71-114.34-86.69c-11.83,8.22-23.28,16.33-34.89,24.2
			c-48.11,32.62-98.65,60.16-156.91,69.48c-40.08,6.41-79.72,4.56-114.97-18.49c-33.03-21.6-56.1-50.06-54.47-95.84
			c-5.81,4.43-9.46,7.74-13.57,10.28c-37.26,22.99-74.36,46.25-112.1,68.45c-9.36,5.51-20.66,8.18-31.39,10.83
			c-38.01,9.39-59.75-0.27-75.81-36.04c-9.45-21.05-15.56-43.59-23.56-66.58c-24.41,14.97-48.12,31-73.17,44.54
			c-42.75,23.11-85.07,47.75-129.87,66.17c-69.78,28.69-121.31,9.91-162.26-53.11c-1.08-1.66-2.39-3.18-2.01-2.68
			c-32.52,20.26-63.55,41.3-96.2,59.43c-31.27,17.37-65.51,27.01-101.72,27.5c-51.57,0.69-84.6-23.29-89.93-74.3
			c-4.46-42.71-0.71-86.39,1.02-129.57c0.86-21.54,5.35-42.93,8.9-69.68c-7.09,7.04-10.97,10.65-14.58,14.51
			c-67.01,71.7-139.29,137.62-214.7,200.45c-34.26,28.55-69.42,35.28-110.3,21.36c-9.01-3.07-18.3-5.33-27.2-8.65
			c-31.3-11.67-39.69-20.84-37.86-53.98c2.88-52.23,8.88-104.28,13.58-156.41c0.8-8.87,1.69-17.74,2.94-30.85
			c-5.84,6.23-9.01,9.29-11.82,12.65c-79.93,95.36-159.7,190.86-239.84,286.06c-18.4,21.86-41.63,35.77-71.12,37.07
			c-38.6,1.7-55.03-20.93-40.45-56.84c4.13-10.16,9.86-20.07,16.65-28.68c126.92-160.87,253.87-321.73,381.52-482.02
			c19.39-24.35,42.56-45.68,63.63-68.72c19.66-21.49,43.12-24.79,69.48-15.69c5.99,2.07,11.99,4.26,17.7,6.98
			c34.51,16.41,38.76,24.04,32.41,61.52c-11.93,70.38-24.78,140.61-36.05,211.1c-2.98,18.63-2.45,37.98-1.94,56.96
			c0.4,15.06,6.51,18.74,19.04,11.14c13.46-8.17,27.22-17.21,37.67-28.74c42.65-47.05,84.17-95.14,125.95-142.98
			c27.86-31.91,55.8-63.75,83-96.21c17.24-20.58,37.67-25.58,62.34-16.62c3.97,1.44,8.13,2.38,12.11,3.82
			c43.12,15.59,47.25,23.48,40.31,68.56c-13.44,87.3-26.41,174.67-39.04,262.09c-1.72,11.92-1.49,24.39-0.27,36.41
			c1.69,16.52,9.78,24.23,26.25,23.34c12.93-0.7,26.62-3.03,38.26-8.37c22.54-10.33,43.94-23.17,65.61-35.32
			c2.9-1.62,5.48-4.97,6.77-8.1c12.11-29.45,32.97-51.96,58.37-69.79c103.34-72.55,218.18-115.34,343.55-130.02
			c3.15-0.37,6.35-0.28,9.53-0.32c11.36-0.15,22.78-0.23,28.27,12.58c5.44,12.69,1.18,34.53-9.65,42.27
			c-8.93,6.38-19.18,11.06-29.17,15.8c-43.94,20.84-88.88,39.79-131.67,62.75c-24.9,13.36-46.87,32.43-69.25,50.08
			c-9.47,7.47-19.54,18.98-11.57,31.32c7.79,12.07,22.59,8.37,33.44,3.09c30.88-15.01,61.49-30.68,91.39-47.55
			c38.27-21.59,75.65-44.74,119.68-53.39c48.02-9.44,71.64,4.23,86.75,50.44c3.61,11.04,7.66,21.93,11.75,32.8
			c3.58,9.53,10.48,11.8,18.84,6.59c16.6-10.33,32.86-21.2,49.2-31.96c40.52-26.69,73.48-58.71,86.62-108.12
			c5.29-19.88,17.6-37.89,28.06-59.54c-21.36,0-39.7,0.29-58.02-0.09c-16.52-0.34-31.2-5.73-42.41-18.46
			c-19.27-21.89-10.47-54.88,17.85-61.15c17.82-3.94,36.74-3.34,55.2-3.84c19.59-0.53,39.25-0.72,58.8,0.43
			c11.77,0.69,18.7-3.56,24.22-13.44c10.57-18.93,22.01-37.38,32.88-56.15c27.26-47.06,67.08-51.23,116.45-28.1
			c20.99,9.83,24.77,24.13,16.15,46.06c-6.19,15.74-12.59,31.4-18.81,47.12c-0.33,0.84,0.13,2,0.33,4.05c37.4,0,74.88,0.01,112.35,0
			c22.79-0.01,45.58-0.35,68.35,0.04c18.2,0.32,24.85,7.55,24.77,25.42c-0.09,21.38-10.05,38.03-29.66,44.54
			c-20.78,6.9-42.99,11.94-64.78,12.85c-47.08,1.95-94.31,0.35-141.45,1.28c-6.51,0.13-16.24,4.76-18.82,10.06
			c-22.2,45.49-43.35,91.5-64.15,137.66c-3.38,7.5-4.42,16.43-4.91,24.79c-2.1,35.96,19.48,73.02,67.49,62.95
			c47.27-9.92,84.9-37.06,121.64-65.87c36.63-28.73,71.95-59.17,109.2-87.05c70.2-52.54,148.6-87.62,235.65-100.11
			c22.22-3.19,47.11-0.92,68.49,5.96c38.74,12.47,54.42,51.01,35.88,87.32c-10.8,21.15-26.76,40.83-44.11,57.27
			c-46.98,44.54-103.06,75.55-162.11,101.34c-5.3,2.32-10.54,4.78-17.46,7.92c24.93,15.1,50.45,16.3,75.55,8.9
			c23.71-6.99,47.55-15.52,69.09-27.43c41.14-22.76,81.15-47.68,120.71-73.14c24-15.45,43.94-34.55,58.23-61.08
			c20.26-37.6,50.11-67.89,93.92-77.47c19.21-4.2,40.06-4.47,59.7-2.28c27.66,3.09,37.84,21.64,28.6,48.01
			c-4.69,13.4-11.43,26.11-17.52,39c-8.35,17.69-17.42,35.06-25.14,53.01c-1.94,4.5,0.08,10.69,0.27,16.11
			c5.88-0.32,12.47,0.91,17.47-1.35c6.56-2.97,12.04-8.48,17.69-13.26c47.71-40.35,94.29-82.14,143.47-120.61
			c24.71-19.33,53.14-34.74,81.66-48.16c28.82-13.57,58.78-10.79,86.42,6.88c14.94,9.55,22.5,22.77,18.53,40.33
			c-8.95,39.65-19.06,79.04-27.85,118.73c-2.24,10.13-1.29,20.97-1.8,31.48c10.5-3.68,23.01-4.89,31.13-11.49
			c27.5-22.34,52.82-47.35,80.18-69.88c23.2-19.11,46.79-38.34,72.53-53.63c29.77-17.69,50.57-10.6,71.04,17.37
			c10.56,14.43,9.67,28.81,4.81,45.06c-5.52,18.48-11.84,37.7-11.91,56.61c-0.16,40.81,24.66,56.07,60.93,36.86
			c29.76-15.77,59.7-33.29,84.71-55.49c58.31-51.74,126.53-84.24,198.33-110.8c56.17-20.78,113.22-38.6,173.67-41.99
			c2.64-0.15,5.29-0.24,7.94-0.26c11.83-0.12,23.98-0.67,29.5,13.1c5.59,13.97,0.48,34.96-11.47,43.16
			c-8.21,5.63-17.51,9.79-26.58,14.05c-43.53,20.47-88.1,38.99-130.4,61.74c-25.81,13.88-48.64,33.57-71.88,51.83
			c-9.47,7.45-19.93,20-10.49,30.89c5.2,6,22.8,7,31.61,3.09c31.33-13.92,61.16-31.17,91.79-46.7
			c32.48-16.46,64.77-33.43,98.09-48.04c13.15-5.77,28.76-7.35,43.38-8.05c34.45-1.64,52.04,11.4,62.85,43.83
			c4.18,12.53,8.65,24.95,12.8,37.49c4.35,13.16,12.45,16.71,23.96,8.73c24.33-16.86,47.96-34.76,72.61-51.13
			c25.61-17.01,42.69-39.03,51.93-68.84c6.35-20.49,17.95-39.36,27.12-58.99c2.58-5.53,4.87-11.2,8.25-19.03
			c-21.05,0-39.51,0.37-57.94-0.11c-17.13-0.44-32.15-6.33-43.21-20.08c-17.28-21.49-8.27-52.24,18.18-59.43
			c11.06-3,22.98-3.67,34.53-3.85c27.55-0.44,55.14,0.77,82.64-0.37c6.99-0.29,16.21-5.16,20.11-10.86
			c12.53-18.29,23.07-37.94,34.33-57.09c25.18-42.78,57.83-54.68,114.65-30.2c22.9,9.86,27.34,24.7,18.2,47.78
			c-6.39,16.15-13.02,32.2-20.29,50.12c6.98,0.33,12.49,0.82,18,0.81c52.46-0.08,104.92-0.32,157.38-0.35
			c29.61-0.02,41.14,15.76,28.44,42.88c-5.32,11.37-16.69,23.42-28.1,27.66c-19.92,7.39-41.89,11.61-63.19,12.44
			c-46.56,1.83-93.24,0.94-139.87,0.58c-9.5-0.07-15.88,2.46-20.77,10.87c-25.83,44.44-49.68,89.77-63.84,139.51
			c-2.02,7.09-3.63,14.44-4.2,21.76c-2.69,34.6,17.79,74.9,67.96,63.78c52.54-11.65,93.69-42.79,133.5-76.5
			c72.42-61.32,150.02-114.44,241.98-141.82c39.36-11.72,80.4-17.83,120.69-26.44c2.05-0.44,4.22-0.39,6.34-0.45
			c22.97-0.67,46.17,0.84,58.18,23.8c12.03,22.99,2.42,44.66-11.66,63.53c-20.62,27.62-49.54,42.21-83.54,41.73
			c-26.2-0.37-52.29-6.37-78.51-9.14c-6.77-0.71-14.86-0.59-20.6,2.45c-27.53,14.54-43.3,43.67-38.54,68.63
			c5.71,29.92,36.65,56.27,70.51,59.8c33.6,3.51,65.21-4.44,95.87-17.26c50.44-21.1,92.77-54.66,135.73-87.47
			c15.65-11.95,26.13-25.5,33.67-43.96c45.17-110.57,119.21-200.34,206.95-279.5c23.7-21.38,51.23-37.54,83.54-43.51
			c14.04-2.59,27.74-3.45,37.93,9.06c10.09,12.39,10.88,27.28,4.33,40.42c-9.84,19.76-21.41,38.88-34.14,56.95
			c-36.24,51.45-73.92,101.89-109.94,153.49c-10.8,15.48-18.24,33.35-26.74,50.36c-3.05,6.1-6.24,12.8-6.61,19.39
			c-0.5,8.86,1.67,17.88,2.7,26.82c8.86-2.13,19.28-2.01,26.25-6.85c16.03-11.12,30.37-24.67,45.41-37.21
			c25.87-21.58,53.34-39.57,87.72-45.26c22.63-3.75,41.26,2.77,52.16,21.59c13.66,23.58,25.61,48.59,34.71,74.25
			c8.96,25.28,13.45,52.14,19.86,78.31C5397.31,1323.82,5399.17,1331.98,5402.07,1344.32z M2237.24,1295.49
			c42.98-26.31,84.95-51.36,125.98-77.86c5.85-3.78,11.94-17.2,9.55-21.64c-4.92-9.12-14.7-16.64-24.12-21.9
			c-4.89-2.73-13.56-0.25-20.03,1.6c-37,10.6-66.08,32.19-86.95,64.57C2231.3,1256.35,2230.51,1273.57,2237.24,1295.49z"/>
		<path class="st0" d="M2237.24,1295.49c-6.73-21.92-5.94-39.13,4.43-55.23c20.86-32.38,49.95-53.97,86.95-64.57
			c6.47-1.85,15.13-4.34,20.03-1.6c9.42,5.26,19.2,12.78,24.12,21.9c2.4,4.44-3.69,17.86-9.55,21.64
			C2322.19,1244.13,2280.22,1269.17,2237.24,1295.49z"/>
	</g>
</g>
</svg>
